<?xml version="1.0" standalone="no"?>
<!DOCTYPE svg PUBLIC "-//W3C//DTD SVG 20010904//EN"
 "http://www.w3.org/TR/2001/REC-SVG-20010904/DTD/svg10.dtd">
<svg version="1.0" xmlns="http://www.w3.org/2000/svg"
 width="1024.000000pt" height="1024.000000pt" viewBox="0 0 1024.000000 1024.000000"
 preserveAspectRatio="xMidYMid meet">
<metadata>
Created by potrace 1.14, written by Peter Selinger 2001-2017
</metadata>
<g transform="translate(0.000000,1024.000000) scale(0.100000,-0.100000)"
fill="#000000" stroke="none">
<path d="M3090 9090 c-1118 -539 -2037 -983 -2041 -987 -4 -4 -213 -908 -464
-2008 -251 -1100 -477 -2090 -502 -2200 -41 -177 -44 -202 -32 -222 8 -13 642
-810 1409 -1773 l1395 -1749 2270 0 2270 0 1395 1749 c767 963 1401 1760 1409
1773 12 20 9 45 -32 222 -25 110 -251 1100 -502 2200 -251 1100 -460 2004
-464 2008 -7 7 -3968 1918 -4047 1952 -30 14 -66 -3 -2064 -965z m1269 -3972
c409 -1030 746 -1876 750 -1880 3 -4 342 837 752 1870 l746 1877 441 3 c243 1
442 0 442 -2 0 -4 -1769 -4227 -2012 -4803 l-60 -143 -306 0 -307 0 -1005
2398 c-552 1318 -1019 2432 -1037 2475 l-32 77 442 0 442 0 744 -1872z"/>
</g>
</svg>
